<svg width="68" height="68" viewBox="0 0 68 68" fill="none" xmlns="http://www.w3.org/2000/svg">
<path d="M33.75 0C15.12 0 0 15.12 0 33.75C0 52.38 15.12 67.5 33.75 67.5C52.38 67.5 67.5 52.38 67.5 33.75C67.5 15.12 52.38 0 33.75 0ZM33.75 10.125C39.3525 10.125 43.875 14.6475 43.875 20.25C43.875 25.8525 39.3525 30.375 33.75 30.375C28.1475 30.375 23.625 25.8525 23.625 20.25C23.625 14.6475 28.1475 10.125 33.75 10.125ZM33.75 58.05C25.3125 58.05 17.8538 53.73 13.5 47.1825C13.6012 40.4662 27 36.7875 33.75 36.7875C40.4663 36.7875 53.8988 40.4662 54 47.1825C49.6463 53.73 42.1875 58.05 33.75 58.05Z" fill="#C8A97E"/>
</svg>
