<svg width="52" height="52" viewBox="0 0 52 52" fill="none" xmlns="http://www.w3.org/2000/svg">
<path d="M23.833 8.66663H14.733C11.0927 8.66663 9.2725 8.66663 7.88207 9.37509C6.65902 9.99827 5.66464 10.9926 5.04147 12.2157C4.33301 13.6061 4.33301 15.4263 4.33301 19.0666V37.2666C4.33301 40.907 4.33301 42.7271 5.04147 44.1176C5.66464 45.3406 6.65902 46.335 7.88207 46.9582C9.2725 47.6666 11.0927 47.6666 14.733 47.6666H32.933C36.5734 47.6666 38.3935 47.6666 39.7839 46.9582C41.007 46.335 42.0014 45.3406 42.6246 44.1176C43.333 42.7271 43.333 40.907 43.333 37.2666V28.1666M17.333 34.6666H20.9611C22.021 34.6666 22.551 34.6666 23.0497 34.5469C23.4918 34.4407 23.9145 34.2657 24.3022 34.0281C24.7395 33.7601 25.1143 33.3854 25.8637 32.6359L46.583 11.9166C48.3779 10.1217 48.3779 7.21156 46.583 5.41663C44.7881 3.6217 41.8779 3.6217 40.083 5.41663L19.3637 26.1359C18.6142 26.8854 18.2395 27.2601 17.9715 27.6974C17.7339 28.0851 17.5588 28.5078 17.4527 28.95C17.333 29.4487 17.333 29.9786 17.333 31.0385V34.6666Z" stroke="#C8A97E" stroke-width="2" stroke-linecap="round" stroke-linejoin="round"/>
</svg>
