<svg width="111" height="138" viewBox="0 0 111 138" fill="none" xmlns="http://www.w3.org/2000/svg">
<path d="M68.9167 2.83057V30.8838C68.9167 34.6875 68.9167 36.5894 69.6569 38.0422C70.3081 39.3201 71.347 40.3591 72.625 41.0102C74.0778 41.7505 75.9796 41.7505 79.7833 41.7505H107.837M55.3333 109.667V68.9167M34.9583 89.2917H75.7083M68.9167 1H33.6C22.1889 1 16.4834 1 12.1249 3.22074C8.29114 5.17416 5.17416 8.29114 3.22074 12.1249C1 16.4834 1 22.1889 1 33.6V104.233C1 115.644 1 121.35 3.22074 125.708C5.17416 129.542 8.29114 132.659 12.1249 134.613C16.4834 136.833 22.1889 136.833 33.6 136.833H77.0667C88.4777 136.833 94.1833 136.833 98.5417 134.613C102.376 132.659 105.493 129.542 107.446 125.708C109.667 121.35 109.667 115.644 109.667 104.233V41.75L68.9167 1Z" stroke="#0A0A0A" stroke-width="2" stroke-linecap="round" stroke-linejoin="round"/>
</svg>
