<svg width="49" height="49" viewBox="0 0 49 49" fill="none" xmlns="http://www.w3.org/2000/svg">
<path d="M24.25 13.9167V34.5833M13.9167 24.25H34.5833M13.4 47.5H35.1C39.4404 47.5 41.6106 47.5 43.2684 46.6553C44.7267 45.9123 45.9123 44.7267 46.6553 43.2684C47.5 41.6106 47.5 39.4404 47.5 35.1V13.4C47.5 9.05959 47.5 6.88939 46.6553 5.23157C45.9123 3.77332 44.7267 2.58772 43.2684 1.8447C41.6106 1 39.4404 1 35.1 1H13.4C9.05959 1 6.88939 1 5.23157 1.8447C3.77332 2.58772 2.58772 3.77332 1.8447 5.23157C1 6.88939 1 9.05959 1 13.4V35.1C1 39.4404 1 41.6106 1.8447 43.2684C2.58772 44.7267 3.77332 45.9123 5.23157 46.6553C6.88939 47.5 9.05959 47.5 13.4 47.5Z" stroke="white" stroke-width="2" stroke-linecap="round" stroke-linejoin="round"/>
</svg>
