<svg width="46" height="44" viewBox="0 0 46 44" fill="none" xmlns="http://www.w3.org/2000/svg">
<g clip-path="url(#clip0_18_830)">
<path d="M29.7086 25.6668H28.1944L27.6577 25.1718C29.9577 22.6052 31.1461 19.1035 30.4944 15.3818C29.5936 10.2852 25.1469 6.21517 19.7802 5.59184C11.6727 4.6385 4.84939 11.1652 5.84606 18.9202C6.49772 24.0535 10.7527 28.3068 16.0811 29.1685C19.9719 29.7918 23.6327 28.6552 26.3161 26.4552L26.8336 26.9685V28.4168L34.9794 36.2085C35.7652 36.9602 37.0494 36.9602 37.8352 36.2085C38.6211 35.4568 38.6211 34.2285 37.8352 33.4768L29.7086 25.6668ZM18.2086 25.6668C13.4361 25.6668 9.58356 21.9818 9.58356 17.4168C9.58356 12.8518 13.4361 9.16684 18.2086 9.16684C22.9811 9.16684 26.8336 12.8518 26.8336 17.4168C26.8336 21.9818 22.9811 25.6668 18.2086 25.6668Z" fill="#C8A97E"/>
</g>
<defs>
<clipPath id="clip0_18_830">
<rect width="46" height="44" fill="white"/>
</clipPath>
</defs>
</svg>
